<svg width="375" height="188" viewBox="0 0 375 188" fill="none" xmlns="http://www.w3.org/2000/svg">
<g clip-path="url(#clip0)">
<path d="M102.387 153.762C112.568 153.762 120.821 145.46 120.821 135.218C120.821 124.977 112.568 116.675 102.387 116.675C92.2069 116.675 83.954 124.977 83.954 135.218C83.954 145.46 92.2069 153.762 102.387 153.762Z" fill="#E4E4E4"/>
<path opacity="0.2" d="M88.7768 122.833C87.0574 126.879 86.8242 131.408 88.1188 135.611C89.4134 139.814 92.1514 143.417 95.8437 145.777C99.536 148.136 103.942 149.098 108.274 148.49C112.606 147.882 116.582 145.744 119.492 142.459C118.442 144.931 116.87 147.143 114.885 148.944C112.9 150.744 110.55 152.088 107.997 152.884C105.445 153.68 102.751 153.907 100.102 153.552C97.453 153.196 94.9127 152.265 92.6569 150.824C90.4012 149.383 88.4839 147.465 87.0379 145.204C85.5919 142.944 84.6518 140.394 84.2827 137.731C83.9136 135.068 84.1244 132.357 84.9004 129.784C85.6764 127.212 86.9991 124.84 88.7768 122.833Z" fill="black"/>
<path d="M102.438 135.218H102.488L103.4 187.793H101.476L102.438 135.218Z" fill="#3F3D56"/>
<path d="M65.0914 119.181C85.617 119.181 102.256 102.442 102.256 81.7935C102.256 61.145 85.617 44.4062 65.0914 44.4062C44.5659 44.4062 27.9266 61.145 27.9266 81.7935C27.9266 102.442 44.5659 119.181 65.0914 119.181Z" fill="#E4E4E4"/>
<path opacity="0.2" d="M37.6502 56.8217C34.1835 64.9793 33.7133 74.1112 36.3234 82.5855C38.9335 91.0599 44.454 98.3244 51.8983 103.081C59.3426 107.838 68.2256 109.777 76.9601 108.551C85.6945 107.326 93.7112 103.016 99.5777 96.3913C97.46 101.375 94.2905 105.837 90.2888 109.466C86.2871 113.095 81.5488 115.806 76.4023 117.41C71.2558 119.015 65.8241 119.474 60.4835 118.757C55.1429 118.04 50.0212 116.163 45.4731 113.257C40.9251 110.351 37.0594 106.485 34.144 101.927C31.2287 97.3689 29.3332 92.2276 28.5891 86.8593C27.845 81.4911 28.2699 76.0243 29.8345 70.8376C31.3991 65.651 34.0659 60.8686 37.6502 56.8217Z" fill="black"/>
<path d="M65.1934 81.7933H65.2957L67.1336 187.793H63.2537L65.1934 81.7933Z" fill="#3F3D56"/>
<path d="M310.12 132.928H139.773V183.728H310.12V132.928Z" fill="#F0F0F0"/>
<path d="M234.878 143.427H215.015V183.728H234.878V143.427Z" fill="#CACACA"/>
<path d="M300.189 72.9834H149.704V119.72H300.189V72.9834Z" fill="#F0F0F0"/>
<path d="M315.445 75.8621H134.448C134.145 75.8621 133.85 75.7712 133.6 75.601C133.349 75.4309 133.155 75.1893 133.042 74.9073C132.929 74.6254 132.903 74.3159 132.966 74.0186C133.03 73.7214 133.18 73.45 133.398 73.2394L182.864 25.4069V4.57205C182.865 4.16799 183.025 3.78062 183.309 3.49491C183.593 3.2092 183.978 3.04849 184.379 3.04803H194.142C194.544 3.04848 194.929 3.20918 195.213 3.4949C195.497 3.78061 195.657 4.16799 195.657 4.57205V13.0368L199.394 9.42389C205.508 3.51169 213.62 0.146522 222.099 0.00467312C230.579 -0.137176 238.797 2.95481 245.103 8.65924L316.458 73.2046C316.686 73.4108 316.846 73.6816 316.918 73.9814C316.99 74.2811 316.969 74.5957 316.859 74.8836C316.75 75.1715 316.556 75.4191 316.303 75.5938C316.051 75.7685 315.751 75.862 315.445 75.8621V75.8621Z" fill="#CACACA"/>
<path d="M327 187.5L296 224.5" stroke="black"/>
<path d="M189.429 84.8368C190.689 84.8368 191.937 85.0865 193.101 85.5715C194.265 86.0566 195.323 86.7676 196.214 87.6639C197.105 88.5601 197.811 89.6242 198.294 90.7952C198.776 91.9663 199.024 93.2214 199.024 94.4889V107.528H179.835V94.4889C179.835 93.2214 180.083 91.9663 180.565 90.7952C181.047 89.6242 181.754 88.5601 182.645 87.6639C183.536 86.7676 184.593 86.0566 185.758 85.5715C186.922 85.0865 188.169 84.8368 189.429 84.8368Z" fill="white"/>
<path d="M224.946 85.0062C227.491 85.0062 229.931 86.0231 231.731 87.8332C233.53 89.6433 234.541 92.0984 234.541 94.6582V107.697H215.352V94.6582C215.352 92.0984 216.362 89.6433 218.162 87.8332C219.961 86.0231 222.402 85.0062 224.946 85.0062Z" fill="white"/>
<path d="M260.463 85.1755C263.008 85.1755 265.448 86.1924 267.248 88.0025C269.047 89.8126 270.058 92.2677 270.058 94.8276V107.866H250.869V94.8276C250.869 92.2677 251.88 89.8126 253.679 88.0025C255.478 86.1924 257.919 85.1755 260.463 85.1755Z" fill="white"/>
<path d="M274.603 142.919C277.147 142.919 279.588 143.936 281.387 145.746C283.187 147.556 284.197 150.011 284.197 152.571V165.61H265.008V152.571C265.008 150.011 266.019 147.556 267.818 145.746C269.618 143.936 272.058 142.919 274.603 142.919Z" fill="white"/>
<path d="M179.666 142.919C182.211 142.919 184.651 143.936 186.451 145.746C188.25 147.556 189.261 150.011 189.261 152.571V165.61H170.072V152.571C170.072 151.303 170.32 150.048 170.802 148.877C171.284 147.706 171.991 146.642 172.882 145.746C173.773 144.849 174.83 144.139 175.995 143.653C177.159 143.168 178.406 142.919 179.666 142.919Z" fill="white"/>
<path d="M335.007 133.721L303.052 119.497C302.88 119.421 302.695 119.381 302.507 119.381H150.214C150.04 119.381 149.868 119.415 149.706 119.481L114.923 133.705C114.634 133.823 114.394 134.039 114.246 134.315C114.097 134.592 114.049 134.912 114.109 135.22C114.169 135.528 114.333 135.806 114.574 136.006C114.815 136.205 115.118 136.315 115.43 136.315H124.455V183.051H123.445V187.793H326.448V183.051H324.764V136.315H334.462C334.771 136.315 335.07 136.208 335.31 136.012C335.55 135.817 335.716 135.544 335.78 135.24C335.843 134.936 335.802 134.619 335.661 134.343C335.52 134.066 335.289 133.847 335.007 133.721ZM322.071 183.051H127.148V136.315H322.071V183.051Z" fill="#CACACA"/>
<path d="M201.38 105.665H176.805V109.729H201.38V105.665Z" fill="#CACACA"/>
<path d="M237.402 105.665H212.827V109.729H237.402V105.665Z" fill="#CACACA"/>
<path d="M273.425 105.665H248.849V109.729H273.425V105.665Z" fill="#CACACA"/>
<path d="M286.891 164.255H262.315V168.319H286.891V164.255Z" fill="#CACACA"/>
<path d="M191.617 164.255H167.042V168.319H191.617V164.255Z" fill="#CACACA"/>
<path d="M280.473 72.2866C280.473 72.5523 280.469 72.822 280.465 73.0876C280.461 73.4072 280.452 73.7226 280.44 74.0421C280.428 74.3202 280.415 74.5941 280.399 74.868C280.349 75.7852 280.271 76.6982 280.164 77.6154C280.139 77.8478 280.11 78.076 280.077 78.3084C280.052 78.4869 280.027 78.6695 279.999 78.8521C279.97 79.0555 279.941 79.2588 279.908 79.4622C279.842 79.8938 279.768 80.3254 279.685 80.757C279.644 80.9728 279.603 81.1886 279.557 81.4044C279.471 81.8319 279.376 82.2635 279.277 82.691C279.268 82.7242 279.26 82.7615 279.252 82.7947C279.202 83.0064 279.153 83.2139 279.099 83.4255C279.083 83.4878 279.07 83.5459 279.05 83.6081C279.013 83.7658 278.971 83.9235 278.93 84.0812C278.872 84.3012 278.815 84.517 278.753 84.7369C278.654 85.0773 278.555 85.4135 278.452 85.7537C278.439 85.7891 278.428 85.8251 278.419 85.8616C278.221 86.5049 278.01 87.1399 277.779 87.7707C277.66 88.1027 277.532 88.4389 277.404 88.7708C277.276 89.1028 277.144 89.4349 277.008 89.7628C276.876 90.0823 276.74 90.4018 276.603 90.7173C276.57 90.792 276.537 90.8667 276.5 90.9414C276.356 91.2692 276.207 91.5888 276.055 91.9083C276.051 91.9125 276.051 91.9208 276.047 91.9249C275.927 92.1822 275.799 92.4396 275.671 92.6927C275.671 92.7004 275.668 92.7078 275.663 92.7134C275.539 92.9625 275.411 93.2115 275.279 93.4563L275.069 93.8589L275.044 93.9046C274.78 94.3984 274.508 94.8881 274.219 95.3737C274.157 95.4816 274.095 95.5895 274.033 95.6932C273.971 95.8011 273.905 95.909 273.839 96.0128C273.798 96.0875 273.753 96.1622 273.703 96.2369C273.617 96.378 273.53 96.5232 273.439 96.6643C273.423 96.6934 273.402 96.7225 273.386 96.7515C273.229 96.9964 273.072 97.2371 272.915 97.4819C272.721 97.7766 272.523 98.0671 272.321 98.3576L267.841 105.57L267.647 105.409L267.594 105.359H267.589L267.412 105.209L266.925 104.794C266.777 104.94 266.632 105.085 266.484 105.226C266.426 105.284 266.364 105.338 266.306 105.396C266.261 105.438 266.22 105.479 266.174 105.521C258.429 113.13 248.126 117.536 237.305 117.867H237.292C229.101 118.093 220.992 116.168 213.765 112.281C213.604 112.198 213.447 112.115 213.291 112.02C212.35 111.505 211.43 110.961 210.527 110.38C210.522 110.376 210.518 110.376 210.514 110.372C209.466 109.625 208.443 108.828 207.445 107.982C202.089 103.44 197.852 97.712 195.065 91.2468C192.279 84.7816 191.019 77.7549 191.385 70.7178C191.397 70.4397 191.414 70.1658 191.434 69.8877C191.5 68.8834 191.602 67.8832 191.739 66.8872C191.777 66.6091 191.818 66.3311 191.859 66.0572H280.052C280.225 67.3271 280.345 68.604 280.411 69.8877C280.452 70.6888 280.473 71.4857 280.473 72.2866Z" fill="#F0F0F0"/>
<path d="M280.052 66.0573C278.464 55.4353 273.141 45.739 265.048 38.7311C256.956 31.7232 246.633 27.8689 235.956 27.8689C225.278 27.8689 214.955 31.7232 206.863 38.7311C198.771 45.739 193.447 55.4353 191.859 66.0573C191.818 66.3312 191.777 66.6093 191.74 66.8873C191.603 67.8834 191.502 68.8835 191.434 69.8879H280.411C280.345 68.6055 280.225 67.3286 280.052 66.0573Z" fill="#04BFBF"/>
<path d="M238.844 112.28H213.293V91.7175C213.764 82.3205 221.748 81.5616 229.25 82.0659C230.51 82.0659 231.757 82.3154 232.922 82.8004C234.086 83.2854 235.143 83.9964 236.034 84.8926C236.925 85.7888 237.632 86.8529 238.114 88.0239C238.596 89.1949 238.844 90.45 238.844 91.7175V112.28Z" fill="#04BFBF"/>
<path d="M213.291 97.6604V97.6645C213.291 97.6687 213.295 97.6687 213.299 97.6687L213.291 97.6604ZM203.014 66.0573C202.998 66.1611 202.977 66.2648 202.96 66.3686C202.977 66.2648 202.998 66.1611 203.018 66.0573H203.014ZM202.503 69.8879C202.49 70.0456 202.478 70.2033 202.47 70.361C202.478 70.2033 202.49 70.0456 202.507 69.8879C202.506 69.8587 202.507 69.8296 202.511 69.8007C202.507 69.8298 202.507 69.8588 202.503 69.8879ZM213.291 97.6645C213.291 97.6687 213.295 97.6687 213.299 97.6687L213.291 97.6604V97.6645ZM203.014 66.0573C202.998 66.1611 202.977 66.2648 202.96 66.3686C202.977 66.2648 202.998 66.1611 203.018 66.0573H203.014ZM202.47 70.361C202.478 70.2033 202.49 70.0456 202.507 69.8879C202.506 69.8587 202.507 69.8296 202.511 69.8007C202.507 69.8298 202.507 69.8588 202.503 69.8879C202.49 70.0456 202.478 70.2033 202.47 70.361ZM329.92 146.706C329.84 146.621 329.755 146.54 329.664 146.466L329.66 146.462L309.231 129.118L308.703 128.67L306.694 126.964L306.191 126.537L303.328 124.105L302.544 123.441L300.923 122.063L300.093 121.357L292.272 114.721L287.787 110.916L287.185 110.405L273.971 99.1876C274.173 98.8971 274.371 98.6066 274.565 98.312C274.722 98.0671 274.879 97.8264 275.036 97.5815C275.052 97.5525 275.073 97.5234 275.089 97.4944C275.18 97.3532 275.267 97.208 275.353 97.0669C275.403 96.9922 275.448 96.9175 275.489 96.8428C275.556 96.7391 275.621 96.6312 275.683 96.5233C275.745 96.4195 275.807 96.3117 275.869 96.2038C276.158 95.7182 276.43 95.2284 276.694 94.7346L276.719 94.6889L276.929 94.2864C277.061 94.0415 277.189 93.7925 277.313 93.5435C277.318 93.5378 277.321 93.5305 277.321 93.5228C277.449 93.2696 277.577 93.0123 277.697 92.755C277.701 92.7508 277.701 92.7425 277.705 92.7384C277.857 92.4188 278.006 92.0993 278.15 91.7714C278.187 91.6967 278.22 91.622 278.254 91.5473C278.39 91.2319 278.526 90.9124 278.658 90.5928C278.794 90.265 278.926 89.9329 279.054 89.6009C279.182 89.2689 279.31 88.9328 279.429 88.6007C279.656 87.9658 279.869 87.3294 280.069 86.6917C280.078 86.6552 280.089 86.6191 280.102 86.5838C280.205 86.2435 280.304 85.9073 280.403 85.567C280.465 85.347 280.522 85.1312 280.58 84.9113C280.621 84.7536 280.663 84.5959 280.7 84.4382C280.72 84.376 280.733 84.3178 280.749 84.2556C280.803 84.0439 280.852 83.8364 280.902 83.6248C280.91 83.5915 280.919 83.5542 280.927 83.521C281.026 83.0936 281.121 82.6619 281.207 82.2345C281.253 82.0187 281.294 81.8029 281.335 81.5871C281.414 81.1555 281.492 80.7238 281.558 80.2922C281.591 80.0889 281.62 79.8855 281.649 79.6822C281.678 79.4996 281.702 79.317 281.727 79.1385C281.76 78.9061 281.789 78.6778 281.814 78.4454C281.921 77.5283 281.999 76.6152 282.049 75.698C282.065 75.4241 282.078 75.1502 282.09 74.8721C282.102 74.5526 282.111 74.2372 282.115 73.9176C282.119 73.652 282.123 73.3823 282.123 73.1166C282.123 72.3157 282.102 71.5189 282.061 70.7179C281.995 69.4355 281.876 68.1587 281.702 66.8873C280.224 56.0201 274.908 46.051 266.725 38.802C258.543 31.5531 248.04 27.5087 237.137 27.408C226.235 27.3072 215.66 31.157 207.346 38.2535C199.033 45.35 193.535 55.2193 191.859 66.0573C191.818 66.3312 191.777 66.6093 191.739 66.8873C191.603 67.8834 191.502 68.8835 191.434 69.8879C191.414 70.1659 191.397 70.4398 191.385 70.7179C191.019 77.755 192.279 84.7817 195.065 91.2469C197.852 97.7122 202.089 103.44 207.445 107.982C208.443 108.828 209.466 109.625 210.514 110.372C210.518 110.376 210.522 110.376 210.527 110.38C210.877 110.63 211.228 110.874 211.583 111.115C212.148 111.489 212.717 111.854 213.291 112.202C213.336 112.227 213.381 112.256 213.427 112.281C213.922 112.58 214.421 112.866 214.92 113.144H214.924C216.782 114.172 218.711 115.065 220.696 115.817C226.519 118.021 232.729 119.001 238.942 118.697H238.955C246.207 118.344 253.269 116.242 259.545 112.568C260.456 112.036 261.356 111.468 262.234 110.862C262.453 110.713 262.676 110.559 262.89 110.405C263.154 110.219 263.418 110.024 263.683 109.829C263.687 109.829 263.687 109.824 263.691 109.824C263.71 109.808 263.731 109.793 263.753 109.779C263.93 109.642 264.111 109.505 264.285 109.372C264.33 109.339 264.376 109.306 264.421 109.268C264.433 109.26 264.444 109.25 264.454 109.239C264.557 109.165 264.656 109.081 264.759 109.003C264.862 108.924 264.961 108.841 265.064 108.758C265.082 108.747 265.099 108.734 265.114 108.72C265.23 108.625 265.345 108.534 265.461 108.438C265.58 108.343 265.696 108.243 265.807 108.148C265.923 108.052 266.034 107.957 266.15 107.857C266.249 107.774 266.352 107.687 266.451 107.596C266.484 107.571 266.513 107.542 266.546 107.513C266.558 107.5 266.572 107.489 266.587 107.48C266.723 107.363 266.855 107.243 266.987 107.123C267.02 107.094 267.049 107.064 267.082 107.035C267.284 106.853 267.486 106.67 267.684 106.479C267.73 106.438 267.779 106.392 267.824 106.351C267.87 106.309 267.911 106.268 267.956 106.226C268.014 106.168 268.076 106.114 268.134 106.056C268.282 105.915 268.427 105.77 268.575 105.624L269.062 106.039L269.239 106.189H269.244L269.297 106.239L269.491 106.401L272.371 108.849L272.433 108.903L272.482 108.94L272.808 109.218L273.46 109.775L274.112 110.327L274.207 110.405L277.239 112.978L277.659 113.335L280.584 115.817L295.725 128.67L296.253 129.118L316.975 146.706L322.288 151.218L324.264 152.894C324.684 153.251 325.169 153.522 325.692 153.69C326.216 153.858 326.767 153.921 327.314 153.875C327.862 153.828 328.395 153.674 328.883 153.42C329.371 153.167 329.805 152.819 330.159 152.396C330.456 152.046 330.692 151.647 330.857 151.218C331.156 150.456 331.227 149.623 331.061 148.821C330.894 148.019 330.498 147.284 329.92 146.706ZM210.419 50.5027C214.558 45.5688 220 41.9135 226.116 39.9589C232.232 38.0044 238.773 37.8304 244.984 39.4571C251.194 41.0837 256.82 44.4446 261.212 49.1516C265.605 53.8586 268.583 59.7195 269.805 66.0573C269.858 66.3354 269.908 66.6093 269.953 66.8873C270.122 67.8792 270.246 68.8835 270.32 69.8879C270.341 70.1659 270.362 70.4398 270.374 70.7179C270.411 71.3404 270.428 71.9671 270.428 72.5896C270.43 76.3657 269.808 80.116 268.588 83.687V83.6911C267.224 87.695 265.129 91.4079 262.412 94.6392C262.354 94.7055 262.296 94.7761 262.234 94.8425C261.69 95.4899 261.117 96.1124 260.527 96.7059C260.522 96.7101 260.518 96.7184 260.514 96.7225C260.312 96.9259 260.106 97.1334 259.899 97.3243C259.479 97.7351 259.05 98.1252 258.612 98.4988C257.956 99.0756 257.284 99.6165 256.595 100.121C256.364 100.292 256.133 100.458 255.898 100.624C255.667 100.79 255.432 100.947 255.196 101.105C254.726 101.42 254.248 101.723 253.765 102.01C253.526 102.155 253.278 102.296 253.035 102.433C252.791 102.574 252.544 102.707 252.296 102.836C252.049 102.968 251.801 103.097 251.55 103.222C251.05 103.475 250.547 103.711 250.036 103.931C249.78 104.047 249.524 104.155 249.268 104.255C249.107 104.321 248.951 104.388 248.79 104.446C248.727 104.475 248.662 104.5 248.596 104.521C248.509 104.558 248.423 104.591 248.336 104.62C248.308 104.633 248.279 104.644 248.249 104.653C248.072 104.724 247.899 104.786 247.717 104.848C247.457 104.944 247.197 105.031 246.933 105.114C246.669 105.201 246.409 105.284 246.145 105.359C245.881 105.442 245.613 105.517 245.349 105.587C245.081 105.662 244.817 105.732 244.549 105.795C244.264 105.869 243.98 105.936 243.691 105.998C243.439 106.056 243.191 106.106 242.94 106.152C242.705 106.201 242.466 106.243 242.23 106.284C241.9 106.342 241.57 106.396 241.236 106.442C241.055 106.471 240.877 106.496 240.696 106.513C240.617 106.525 240.543 106.533 240.469 106.542C240.238 106.575 240.007 106.6 239.78 106.621C239.718 106.625 239.66 106.633 239.602 106.637C239.351 106.662 239.095 106.683 238.843 106.704C238.303 106.741 237.767 106.766 237.226 106.778C236.954 106.782 236.677 106.787 236.405 106.787C236.133 106.787 235.861 106.782 235.588 106.774C235.588 106.774 235.588 106.778 235.584 106.774C235.58 106.778 235.58 106.778 235.576 106.774C235.575 106.775 235.575 106.775 235.574 106.775C235.573 106.776 235.573 106.776 235.572 106.776C235.571 106.776 235.57 106.776 235.57 106.775C235.569 106.775 235.568 106.775 235.568 106.774C235.554 106.778 235.54 106.778 235.527 106.774C235.333 106.774 235.139 106.766 234.949 106.753C234.809 106.749 234.664 106.745 234.52 106.733C234.326 106.724 234.132 106.712 233.938 106.695C233.876 106.695 233.815 106.687 233.753 106.683C233.724 106.682 233.695 106.679 233.666 106.675C233.468 106.658 233.266 106.641 233.068 106.621C232.969 106.612 232.866 106.604 232.767 106.591C232.465 106.558 232.164 106.521 231.867 106.479C231.529 106.438 231.191 106.388 230.857 106.326C230.7 106.305 230.547 106.276 230.394 106.247C230.192 106.214 229.99 106.176 229.788 106.135C229.578 106.093 229.367 106.052 229.157 106.002C228.988 105.965 228.814 105.927 228.645 105.886C228.563 105.869 228.48 105.849 228.402 105.828C227.969 105.724 227.54 105.612 227.115 105.488C226.847 105.413 226.578 105.334 226.314 105.251C225.951 105.139 225.593 105.019 225.234 104.89C225.093 104.844 224.957 104.795 224.817 104.741C224.677 104.695 224.541 104.641 224.4 104.587C224.272 104.541 224.144 104.492 224.021 104.442C223.814 104.363 223.612 104.28 223.41 104.197C222.993 104.027 222.585 103.848 222.177 103.657C221.946 103.545 221.715 103.437 221.488 103.325C220.593 102.89 219.711 102.405 218.843 101.873C218.629 101.744 218.414 101.607 218.2 101.47C217.932 101.304 217.672 101.13 217.412 100.956C217.267 100.856 217.127 100.761 216.987 100.661C216.727 100.478 216.471 100.292 216.22 100.105C216.088 100.009 215.955 99.9098 215.828 99.8102C215.37 99.4616 214.92 99.0964 214.479 98.7229C214.268 98.5444 214.058 98.3618 213.852 98.1751C213.765 98.1004 213.678 98.0215 213.592 97.9427C213.493 97.8514 213.394 97.7642 213.299 97.6688L213.29 97.6605C213.146 97.5318 213.002 97.3948 212.861 97.2579C212.643 97.0504 212.428 96.8387 212.222 96.623C212.008 96.4113 211.801 96.1914 211.599 95.9755C211.393 95.7597 211.195 95.5398 211.001 95.3156C210.803 95.0957 210.609 94.8716 210.419 94.6434C210.234 94.4276 210.052 94.2034 209.879 93.9835C209.458 93.4605 209.056 92.9279 208.674 92.3857C208.497 92.1367 208.328 91.8876 208.163 91.6345C207.985 91.3772 207.816 91.1158 207.655 90.8543C207.486 90.5928 207.325 90.3272 207.168 90.0575C207.164 90.0483 207.159 90.0398 207.152 90.0325C206.842 89.5055 206.545 88.9743 206.269 88.4347C205.984 87.887 205.716 87.3336 205.465 86.7747C205.337 86.4966 205.213 86.2144 205.097 85.9323C204.858 85.3637 204.635 84.7951 204.429 84.2182C204.326 83.9402 204.231 83.6621 204.136 83.3799C204.133 83.3612 204.128 83.3431 204.12 83.326C203.93 82.7532 203.757 82.1764 203.604 81.5954C203.6 81.5871 203.6 81.5788 203.596 81.5705C203.517 81.2841 203.443 80.9978 203.377 80.7073C203.311 80.4541 203.253 80.2009 203.2 79.9436C203.138 79.6573 203.076 79.3709 203.022 79.0804C202.993 78.931 202.965 78.7816 202.94 78.6322C202.915 78.5077 202.894 78.379 202.874 78.2546C202.853 78.1301 202.833 78.0014 202.812 77.8727C202.771 77.6196 202.734 77.3664 202.701 77.1133C202.659 76.8145 202.626 76.5156 202.593 76.2127C202.556 75.8516 202.523 75.4905 202.494 75.1254C202.474 74.8805 202.461 74.6315 202.449 74.3825C202.436 74.1543 202.424 73.926 202.42 73.6977C202.416 73.6856 202.416 73.6725 202.42 73.6604C202.42 73.6598 202.419 73.6592 202.419 73.6585C202.418 73.6578 202.418 73.657 202.418 73.6562C202.418 73.6555 202.418 73.6547 202.419 73.654C202.419 73.6533 202.42 73.6526 202.42 73.6521C202.416 73.6479 202.416 73.6479 202.42 73.6438C202.42 73.6432 202.419 73.6426 202.419 73.6419C202.418 73.6412 202.418 73.6404 202.418 73.6396C202.418 73.6389 202.418 73.6381 202.419 73.6374C202.419 73.6367 202.42 73.636 202.42 73.6355C202.416 73.5442 202.412 73.4529 202.412 73.3616C202.404 73.0919 202.399 72.8221 202.399 72.5523C202.399 72.3074 202.404 72.0667 202.408 71.8219C202.416 71.4816 202.428 71.1413 202.445 70.801C202.445 70.7263 202.453 70.6557 202.457 70.581C202.461 70.5063 202.465 70.4357 202.47 70.361C202.478 70.2033 202.49 70.0456 202.507 69.8879C202.506 69.8588 202.507 69.8297 202.511 69.8008C202.523 69.6223 202.54 69.4439 202.556 69.2654C202.589 68.9085 202.63 68.5475 202.676 68.1905C202.701 68.0121 202.721 67.8336 202.75 67.6552C202.767 67.5307 202.787 67.402 202.808 67.2734C202.824 67.1447 202.845 67.0161 202.87 66.8874C202.899 66.7173 202.927 66.5429 202.96 66.3686C202.977 66.2649 202.998 66.1611 203.018 66.0574C203.097 65.6424 203.183 65.2274 203.278 64.8124C203.373 64.3932 203.48 63.9782 203.596 63.5632C203.707 63.144 203.831 62.7248 203.963 62.3057C204.025 62.094 204.091 61.8865 204.165 61.679C204.301 61.2599 204.446 60.8449 204.607 60.434C204.681 60.2306 204.759 60.0231 204.846 59.8198C205.011 59.4089 205.184 58.998 205.361 58.5955C205.452 58.3921 205.543 58.1888 205.642 57.9854C205.828 57.5829 206.022 57.1803 206.232 56.786C206.434 56.3835 206.653 55.9892 206.876 55.5991C207.098 55.209 207.329 54.8189 207.573 54.4329C207.684 54.242 207.808 54.047 207.936 53.8602C208.183 53.4784 208.443 53.0966 208.707 52.7231C209.239 51.9677 209.813 51.2248 210.419 50.5027ZM202.503 69.8879C202.49 70.0456 202.478 70.2033 202.47 70.361C202.478 70.2033 202.49 70.0456 202.507 69.8879C202.506 69.8587 202.507 69.8296 202.511 69.8007C202.507 69.8298 202.507 69.8588 202.503 69.8879ZM203.014 66.0573C202.998 66.1611 202.977 66.2648 202.961 66.3686C202.977 66.2648 202.998 66.1611 203.018 66.0573H203.014ZM213.291 97.6604V97.6645C213.291 97.6687 213.295 97.6687 213.299 97.6687L213.291 97.6604Z" fill="#3F3D56"/>
<path opacity="0.3" d="M214.479 98.7224C207.954 93.183 203.738 85.3774 202.669 76.8557C201.6 68.334 203.755 59.7194 208.707 52.7225C208.057 53.3814 207.428 54.0714 206.821 54.7926C203.941 58.2269 201.761 62.1984 200.406 66.4802C199.051 70.7621 198.547 75.2704 198.925 79.748C199.302 84.2255 200.552 88.5844 202.603 92.5759C204.655 96.5675 207.468 100.113 210.882 103.011C217.776 108.864 226.7 111.721 235.689 110.955C244.678 110.189 252.996 105.862 258.814 98.9262C259.419 98.2041 259.99 97.4645 260.525 96.7075C254.502 102.796 246.423 106.382 237.893 106.756C229.363 107.129 221.005 104.261 214.479 98.7224Z" fill="black"/>
</g>
<defs>
<clipPath id="clip0">
<rect width="375" height="188" fill="white"/>
</clipPath>
</defs>
</svg>
